<svg xmlns="http://www.w3.org/2000/svg" viewBox="0 0 48 48"><defs><style>.cls-1{fill:#424242;}.cls-2{fill:#42a5f5;}</style></defs><title>Warning Computer</title><g id="Warning_Computer" data-name="Warning Computer"><path class="cls-1" d="M15,8H5A1,1,0,0,1,5,6H15A1,1,0,0,1,15,8Z"/><path class="cls-1" d="M15,12H5a1,1,0,0,1,0-2H15A1,1,0,0,1,15,12Z"/><path class="cls-1" d="M11,16H5a1,1,0,0,1,0-2h6A1,1,0,0,1,11,16Z"/><path class="cls-1" d="M43,8H33a1,1,0,0,1,0-2H43A1,1,0,0,1,43,8Z"/><path class="cls-1" d="M43,12H33a1,1,0,0,1,0-2H43A1,1,0,0,1,43,12Z"/><path class="cls-1" d="M43,16H37a1,1,0,0,1,0-2h6A1,1,0,0,1,43,16Z"/><path class="cls-2" d="M33,46H15a1,1,0,0,1,0-2h1.22l1-4H30.78l1,4H33A1,1,0,0,1,33,46Z"/><path class="cls-1" d="M45,2H3A3,3,0,0,0,0,5V35a3,3,0,0,0,3,3H45a3,3,0,0,0,3-3V5A3,3,0,0,0,45,2ZM3,4H45a1,1,0,0,1,1,1V28H2V5A1,1,0,0,1,3,4ZM45,36H3a1,1,0,0,1-1-1V30H46v5A1,1,0,0,1,45,36Z"/><path class="cls-2" d="M25,33a1,1,0,0,1-2,0A1,1,0,0,1,25,33Z"/><path class="cls-2" d="M32.59,20,26.35,8.41a2.67,2.67,0,0,0-4.71,0L15.41,20a3.39,3.39,0,0,0,3,5H29.6A3.4,3.4,0,0,0,32.59,20ZM24,22a1,1,0,0,1,0-2A1,1,0,0,1,24,22Zm1-4H23l-1-6h4Z"/></g></svg>